<?xml version="1.0" encoding="utf-8"?>
<!-- Generator: Adobe Illustrator 25.4.1, SVG Export Plug-In . SVG Version: 6.00 Build 0)  -->
<svg version="1.1" xmlns="http://www.w3.org/2000/svg" xmlns:xlink="http://www.w3.org/1999/xlink" x="0px" y="0px"
	 viewBox="0 0 5000 5000" style="enable-background:new 0 0 5000 5000;" xml:space="preserve">
<style type="text/css">
	.st0{fill:#FFFFFF;}
	.st1{fill:url(#SVGID_1_);}
	.st2{fill:url(#SVGID_00000105410427046893817190000012478198842152169398_);}
	.st3{fill:url(#SVGID_00000098910755067983176070000011386380647264503221_);}
	.st4{fill:url(#SVGID_00000114053456344543387150000009026000607202129809_);}
	.st5{fill:url(#SVGID_00000109025275087785978230000006598169269815042449_);}
	.st6{fill:url(#SVGID_00000029758710328687022130000009702667404315070095_);}
	.st7{fill:url(#SVGID_00000093172441630191527900000017947157823517013896_);}
	.st8{fill:#F9AB9E;}
	.st9{fill:#B34C77;}
	.st10{fill:url(#SVGID_00000055696601761881388070000008109862022375622315_);}
	.st11{fill:url(#SVGID_00000067230954284301164190000008155485435869469607_);}
	.st12{fill:#231F20;}
	.st13{fill:url(#SVGID_00000034071129399942650280000004179566540784443787_);}
	.st14{fill:#37204E;}
	.st15{opacity:0.4;fill:#138074;}
	.st16{fill:#1E8572;}
	.st17{opacity:0.37;fill:#FFF7D5;}
	.st18{opacity:0.38;fill:#B25244;}
	.st19{opacity:0.5;fill:#BF1F47;}
	.st20{fill:#E53D72;}
	.st21{fill:url(#SVGID_00000027583943528076165010000015603493239048383657_);}
	.st22{fill:url(#SVGID_00000126320179411563226980000017444553585832183995_);}
	.st23{opacity:0.46;fill:#BDC3C8;}
	.st24{fill:url(#SVGID_00000059278817138731516410000014557188399050569099_);}
	.st25{fill:url(#SVGID_00000080925199977304543790000011587817002089247121_);}
	.st26{fill:url(#SVGID_00000070102413631861906520000008466688007561357501_);}
	.st27{fill:url(#SVGID_00000085941727474892329850000002034177041789207195_);}
	.st28{fill:url(#SVGID_00000098196470201614589220000002507450104013440912_);}
	.st29{fill:url(#SVGID_00000165940728646810442520000004287877519635624123_);}
	.st30{fill:url(#SVGID_00000107587946290563036960000001937395528612924824_);}
	.st31{opacity:0.29;fill:#B27B31;}
	.st32{opacity:0.57;fill:#699361;}
	.st33{fill:url(#SVGID_00000070834755022876715570000014964077275170782396_);}
	.st34{fill:url(#SVGID_00000021829960609304091380000002507306501069013133_);}
	.st35{fill:url(#SVGID_00000138533586937875167850000003324975565981151668_);}
	.st36{fill:url(#SVGID_00000108990771665526678540000007337165629399499170_);}
	.st37{fill:url(#SVGID_00000044174442528739437570000006745325604512987779_);}
	.st38{fill:url(#SVGID_00000060010414017066162140000016891775851024360066_);}
	.st39{fill:url(#SVGID_00000181056853056588337890000006905076267397779391_);}
</style>
<g id="bg">
	<rect class="st0" width="5000" height="5000"/>
</g>
<g id="main">
	<g>
		<linearGradient id="SVGID_1_" gradientUnits="userSpaceOnUse" x1="2933.9087" y1="1815.075" x2="2221.8977" y2="3853.0239">
			<stop  offset="0" style="stop-color:#FFFE9C"/>
			<stop  offset="1" style="stop-color:#FF295F"/>
		</linearGradient>
		<path class="st1" d="M3275.55,1961.8v1744.49c0,21.25-17.3,38.55-38.55,38.55H1918.78c-21.25,0-38.55-17.3-38.55-38.55V1961.8
			c0-10.21,4.05-19.51,10.55-26.4l0.34-0.34v-0.05c6.99-7.23,16.82-11.76,27.66-11.76h511.5c0.67,0,1.01,0,1.01,0H3237
			C3258.25,1923.26,3275.55,1940.55,3275.55,1961.8z"/>
		
			<linearGradient id="SVGID_00000030467716658258394260000014350135898290955711_" gradientUnits="userSpaceOnUse" x1="3946.6804" y1="2543.6755" x2="3539.4353" y2="3928.8123">
			<stop  offset="0.1434" style="stop-color:#04C0C7"/>
			<stop  offset="0.8333" style="stop-color:#E0FF90"/>
		</linearGradient>
		<path style="fill:url(#SVGID_00000030467716658258394260000014350135898290955711_);" d="M4117.31,2868.97
			c-1.35-20-18.07-35.9-38.45-35.9h-616.88c-7.95,0-15.37,2.41-21.49,6.55l-6.36,5.4c-6.6,6.89-10.7,16.29-10.7,26.6v66.2
			c0,49-22.55,88.13-22.55,88.13c-15.95-27.66-16-89.28-16-90v-49.34l-70.78,59.7v685.25l70.78,59.84v-506.15
			c0.43-63.12,24.48-87.64,24.48-87.64c9.93,16.43,13.15,49.58,14.07,75.94v532.75c0,10.94,4.58,20.77,11.95,27.8l1.01,0.87
			l-0.05,0.05c6.84,6.07,15.8,9.83,25.63,9.83h616.88c20.33,0,37.1-15.85,38.45-35.9c0.1-0.87,0.1-1.73,0.1-2.65v-834.66
			C4117.41,2870.76,4117.41,2869.84,4117.31,2868.97z M3770.4,3491.35c-18.74,0-36.86-2.55-54.11-7.32
			c-73.72-27.8-78.01-68.8-78.01-68.8c25.68,7.28,52.04,17.97,63.6,22.79c0.96,0.39,1.83,0.72,2.55,1.06
			c0.87,0.39,1.73,0.77,2.6,1.11c0.29,0.19,0.53,0.29,0.82,0.39c0.05,0,0.05,0,0.05,0h0.05c19.27,7.9,40.38,12.24,62.44,12.24
			c91.26,0,165.51-74.25,165.51-165.51c0-91.21-74.25-165.46-165.51-165.46c-91.3,0-165.51,74.25-165.51,165.46
			c0,5.97,0.34,11.85,0.96,17.63c0.1,1.16,0.24,2.27,0.39,3.42c8.91,74.73,1.73,86.87,1.73,86.87
			c-17.54-14.89-27.27-33.1-32.67-48.18c-5.83-18.94-8.96-38.98-8.96-59.75c0-112.51,91.5-204,204.05-204
			c112.51,0,204.05,91.5,204.05,204C3974.45,3399.8,3882.91,3491.35,3770.4,3491.35z M3662.52,3287.34
			c0-59.51,48.42-107.93,107.88-107.93c59.51,0,107.88,48.42,107.88,107.93c0,59.46-48.37,107.88-107.88,107.88
			C3710.95,3395.22,3662.52,3346.8,3662.52,3287.34z M3981.68,3023.83c-35.08,0-63.6-28.52-63.6-63.55c0-35.08,28.52-63.6,63.6-63.6
			c35.08,0,63.6,28.52,63.6,63.6C4045.28,2995.31,4016.76,3023.83,3981.68,3023.83z"/>
		
			<linearGradient id="SVGID_00000000208479356359364760000002427163397148963721_" gradientUnits="userSpaceOnUse" x1="5236.3779" y1="1180.4835" x2="1763.4813" y2="2871.6807">
			<stop  offset="0" style="stop-color:#FFFE9C"/>
			<stop  offset="1" style="stop-color:#FF295F"/>
		</linearGradient>
		<path style="fill:url(#SVGID_00000000208479356359364760000002427163397148963721_);" d="M1841.71,1983.58v1700.02l-90.49-87.5
			v-724.42c0-42.55-34.59-77.09-77.09-77.09h-7.85v-582.43c0-36.86,15.37-72.51,42.45-98.05L1841.71,1983.58z"/>
		
			<linearGradient id="SVGID_00000111894699410698537260000000982088113952647858_" gradientUnits="userSpaceOnUse" x1="2179.0361" y1="3184.0149" x2="3051.3291" y2="3184.0149">
			<stop  offset="0" style="stop-color:#97A2AD"/>
			<stop  offset="0.5838" style="stop-color:#5B6877"/>
			<stop  offset="1" style="stop-color:#344354"/>
		</linearGradient>
		<path style="fill:url(#SVGID_00000111894699410698537260000000982088113952647858_);" d="M3051.33,3183.99
			c0,229.78-178.56,418.66-404.25,435.04c-10.55,0.77-21.15,1.16-31.9,1.16c-240.43,0-436.15-195.67-436.15-436.19
			c0-234.5,186.18-426.46,418.46-435.76c5.88-0.29,11.76-0.39,17.68-0.39C2855.71,2747.84,3051.33,2943.56,3051.33,3183.99z"/>
		
			<linearGradient id="SVGID_00000183967803146631160540000008993118838860640396_" gradientUnits="userSpaceOnUse" x1="1786.4255" y1="2662.1343" x2="885.2072" y2="3951.7446">
			<stop  offset="0.1434" style="stop-color:#04C0C7"/>
			<stop  offset="0.8333" style="stop-color:#E0FF90"/>
		</linearGradient>
		<path style="fill:url(#SVGID_00000183967803146631160540000008993118838860640396_);" d="M1674.13,2833.13h-616.88
			c-8.09,0-15.8,2.46-22.31,7.18l-4.63,3.9c-7.52,7.32-11.61,17.06-11.61,27.46v271.03c-2.41,78.83-25.34,182.71-25.34,182.71
			c-8.77-38.93-13.2-215.57-13.2-215.57v-223.28l-23.03,19.47c-30.35,25.58-47.75,63.07-47.75,102.77v560.36
			c0,39.7,17.39,77.14,47.7,102.73l23.08,19.51v-238.41c1.45-44.33,16.62-63.12,16.62-63.12c17.01,24.14,21.92,70.68,21.92,70.68
			v245.73c0,10.6,4.48,20.81,12.34,28.14l0.77,0.63c7.18,6.36,16.14,9.78,25.44,9.78h616.88c21.25,0,38.55-17.3,38.55-38.55v-834.61
			C1712.68,2850.38,1695.38,2833.13,1674.13,2833.13z M1365.72,3491.35c-18.74,0-36.86-2.55-54.11-7.32
			c-73.72-27.8-78.01-68.8-78.01-68.8c25.63,7.28,52.04,17.97,63.6,22.79c0.96,0.39,1.78,0.72,2.55,1.06
			c0.87,0.39,1.73,0.77,2.6,1.11c0.24,0.19,0.53,0.29,0.82,0.39c0.05,0,0.05,0,0.05,0h0.05c19.27,7.9,40.33,12.24,62.44,12.24
			c91.26,0,165.51-74.25,165.51-165.51c0-91.21-74.25-165.46-165.51-165.46c-5.97,0-11.85,0.34-17.63,0.96
			c-1.16,0.1-2.26,0.24-3.42,0.39c-57.1,7.28-105.18,43.7-128.79,93.86c-10.07,21.35-15.71,45.15-15.71,70.25
			c0,5.97,0.38,11.85,1.01,17.63c0.1,1.16,0.19,2.27,0.39,3.42c8.91,74.73,1.73,86.87,1.73,86.87
			c-17.59-14.89-27.27-33.1-32.67-48.18c-5.83-18.94-9.01-38.98-9.01-59.75c0-53.39,20.57-102,54.25-138.38
			c37.29-40.33,90.68-65.62,149.85-65.62c112.51,0,204.05,91.5,204.05,204C1569.77,3399.8,1478.22,3491.35,1365.72,3491.35z
			 M1257.79,3287.34c0-59.51,48.42-107.93,107.93-107.93c59.46,0,107.88,48.42,107.88,107.93c0,59.46-48.42,107.88-107.88,107.88
			C1306.21,3395.22,1257.79,3346.8,1257.79,3287.34z M1586.49,3023.83c-35.08,0-63.6-28.52-63.6-63.55c0-35.08,28.52-63.6,63.6-63.6
			c35.03,0,63.55,28.52,63.55,63.6C1650.04,2995.31,1621.52,3023.83,1586.49,3023.83z"/>
		
			<linearGradient id="SVGID_00000092428994720363402900000006780748067887717804_" gradientUnits="userSpaceOnUse" x1="2380.8237" y1="2330.5615" x2="2806.7073" y2="2330.5615">
			<stop  offset="0" style="stop-color:#97A2AD"/>
			<stop  offset="0.5838" style="stop-color:#5B6877"/>
			<stop  offset="1" style="stop-color:#344354"/>
		</linearGradient>
		<path style="fill:url(#SVGID_00000092428994720363402900000006780748067887717804_);" d="M2593.74,2117.62
			c-117.37,0-212.92,95.55-212.92,212.92c0,117.42,95.55,212.97,212.92,212.97c117.42,0,212.97-95.55,212.97-212.97
			C2806.71,2213.17,2711.16,2117.62,2593.74,2117.62z M2593.74,2445.36c-61.91,0-112.27-50.35-112.27-112.26
			s50.35-112.31,112.27-112.31c61.96,0,112.31,50.4,112.31,112.31S2655.7,2445.36,2593.74,2445.36z"/>
		
			<linearGradient id="SVGID_00000163049133037239256790000004545215777012623282_" gradientUnits="userSpaceOnUse" x1="2333.2678" y1="3193.531" x2="2892.0864" y2="3193.531">
			<stop  offset="0.1434" style="stop-color:#04C0C7"/>
			<stop  offset="0.8333" style="stop-color:#E0FF90"/>
		</linearGradient>
		<circle style="fill:url(#SVGID_00000163049133037239256790000004545215777012623282_);" cx="2612.68" cy="3193.53" r="279.41"/>
		<path class="st8" d="M1435.05,3287.34c0,38.21-31.13,69.33-69.33,69.33c-38.26,0-69.38-31.13-69.38-69.33
			c0-38.26,31.13-69.38,69.38-69.38C1403.93,3217.96,1435.05,3249.09,1435.05,3287.34z"/>
		<path class="st9" d="M1611.5,2960.28c0,13.78-11.23,25.01-25.01,25.01c-13.83,0-25.05-11.23-25.05-25.01
			c0-13.83,11.23-25.06,25.05-25.06C1600.27,2935.23,1611.5,2946.45,1611.5,2960.28z"/>
		<path class="st9" d="M4006.74,2960.28c0,13.78-11.23,25.01-25.06,25.01c-13.78,0-25.06-11.23-25.06-25.01
			c0-13.83,11.28-25.06,25.06-25.06C3995.51,2935.23,4006.74,2946.45,4006.74,2960.28z"/>
		
			<linearGradient id="SVGID_00000159458971318154021140000003813395603997729434_" gradientUnits="userSpaceOnUse" x1="3069.4785" y1="2692.8896" x2="3061.937" y2="2511.8921">
			<stop  offset="0.1434" style="stop-color:#04C0C7"/>
			<stop  offset="0.8333" style="stop-color:#E0FF90"/>
		</linearGradient>
		<circle style="fill:url(#SVGID_00000159458971318154021140000003813395603997729434_);" cx="3065.45" cy="2596.12" r="77"/>
		
			<linearGradient id="SVGID_00000109747095724520139040000004334025039535551650_" gradientUnits="userSpaceOnUse" x1="3719.3711" y1="1902.5021" x2="3459.1868" y2="2354.9968">
			<stop  offset="0" style="stop-color:#FFFE9C"/>
			<stop  offset="1" style="stop-color:#FF295F"/>
		</linearGradient>
		<path style="fill:url(#SVGID_00000109747095724520139040000004334025039535551650_);" d="M3830.92,1785.5
			c-16.43,17.2-33.44,42.3-48.95,78.73c-29.49,69.24-156.11,65.05-157.36,64.95l-26.5-1.11l95.5,341.32
			c2.46,15.85-4.63,30.21-21.06,42.74c-38.59,29.34-115.54,37.87-158.33,17.59c-18.65-8.82-27.99-21.3-28.57-38.16
			c-0.58-16.72,4.29-29.58,14.84-39.27c20.72-19.08,60.08-23.56,88.03-23.56c9.93,0,18.45,0.58,24.14,1.25l29.44,3.57
			l-101.42-330.43c-0.53-2.12-5.97-25.34,6.6-38.79c12.29-13.11,41.05-15.9,81.04-7.9c74.35,14.84,107.21-11.95,136.16-35.56
			C3782.88,1805.78,3800.71,1791.28,3830.92,1785.5z"/>
		<path class="st12" d="M1348.13,3122.75l-0.05,0.05c-1.16,0.1-2.26,0.24-3.42,0.39C1345.82,3123.04,1346.98,3122.9,1348.13,3122.75
			z"/>
		
			<linearGradient id="SVGID_00000134219108318946342970000002627359955428546445_" gradientUnits="userSpaceOnUse" x1="2525.4438" y1="2389.0991" x2="2656.4785" y2="2281.6318">
			<stop  offset="0.1434" style="stop-color:#04C0C7"/>
			<stop  offset="0.8333" style="stop-color:#E0FF90"/>
		</linearGradient>
		<path style="fill:url(#SVGID_00000134219108318946342970000002627359955428546445_);" d="M2667.51,2333.09
			c0,40.62-33.1,73.72-73.77,73.72c-40.62,0-73.72-33.1-73.72-73.72c0-40.67,33.1-73.77,73.72-73.77
			C2634.41,2259.32,2667.51,2292.43,2667.51,2333.09z"/>
		<path class="st14" d="M2593.74,2079.07c-138.62,0-251.46,112.79-251.46,251.46c0,138.67,112.84,251.51,251.46,251.51
			c138.72,0,251.51-112.84,251.51-251.51C2845.25,2191.87,2732.46,2079.07,2593.74,2079.07z M2593.74,2543.5
			c-117.37,0-212.92-95.55-212.92-212.97c0-117.37,95.55-212.92,212.92-212.92c117.42,0,212.97,95.55,212.97,212.92
			C2806.71,2447.96,2711.16,2543.5,2593.74,2543.5z"/>
		<path class="st14" d="M2612.68,2875.58c-175.34,0-317.96,142.62-317.96,317.96c0,175.33,142.62,317.96,317.96,317.96
			c175.34,0,317.96-142.62,317.96-317.96C2930.63,3018.2,2788.01,2875.58,2612.68,2875.58z M2612.68,3472.94
			c-154.04,0-279.41-125.32-279.41-279.41c0-154.04,125.37-279.41,279.41-279.41c154.09,0,279.41,125.37,279.41,279.41
			C2892.09,3347.62,2766.76,3472.94,2612.68,3472.94z"/>
		<path class="st15" d="M1215.87,3217.04c0,192.1,0,381.46,0,381.46s1.06,92.8,48.57,146.33h-207.18c-9.3,0-18.26-3.42-25.44-9.78
			l-0.77-0.63c-7.85-7.32-12.34-17.54-12.34-28.14v-245.73c0,0-4.91-46.54-21.92-70.68c0,0-15.18,18.79-16.62,63.12v238.41
			l-23.08-19.51c-30.31-25.59-47.7-63.02-47.7-102.73V3008.8c0-39.7,17.39-77.19,47.75-102.77l23.03-19.47v223.28
			c0,0,4.43,176.64,13.2,215.57c0,0,22.93-103.88,25.34-182.71v-271.03c0-10.41,4.1-20.14,11.61-27.46l4.63-3.9
			c6.5-4.72,14.21-7.18,22.31-7.18h264.76c-37,3.32-106.15,32.19-106.15,201.31V3217.04z"/>
		<path class="st14" d="M1586.49,2896.68c-35.08,0-63.6,28.52-63.6,63.6c0,35.03,28.52,63.55,63.6,63.55
			c35.03,0,63.55-28.52,63.55-63.55C1650.04,2925.2,1621.52,2896.68,1586.49,2896.68z M1586.49,2985.29
			c-13.83,0-25.05-11.23-25.05-25.01c0-13.83,11.23-25.06,25.05-25.06c13.78,0,25.01,11.23,25.01,25.06
			C1611.5,2974.06,1600.27,2985.29,1586.49,2985.29z"/>
		<path class="st14" d="M3981.68,2896.68c-35.08,0-63.6,28.52-63.6,63.6c0,35.03,28.52,63.55,63.6,63.55
			c35.08,0,63.6-28.52,63.6-63.55C4045.28,2925.2,4016.76,2896.68,3981.68,2896.68z M3981.68,2985.29
			c-13.78,0-25.06-11.23-25.06-25.01c0-13.83,11.28-25.06,25.06-25.06c13.83,0,25.06,11.23,25.06,25.06
			C4006.74,2974.06,3995.51,2985.29,3981.68,2985.29z"/>
		<path class="st14" d="M3065.45,2480.58c-63.7,0-115.54,51.84-115.54,115.54c0,63.7,51.84,115.54,115.54,115.54
			c63.7,0,115.54-51.84,115.54-115.54C3180.99,2532.42,3129.14,2480.58,3065.45,2480.58z M3065.45,2673.11c-42.45,0-77-34.55-77-77
			c0-42.45,34.55-76.99,77-76.99c42.45,0,77,34.55,77,76.99C3142.44,2638.57,3107.9,2673.11,3065.45,2673.11z"/>
		<path class="st14" d="M2593.74,2220.78c-61.91,0-112.27,50.4-112.27,112.31s50.35,112.26,112.27,112.26
			c61.96,0,112.31-50.35,112.31-112.26S2655.7,2220.78,2593.74,2220.78z M2593.74,2406.81c-40.62,0-73.72-33.1-73.72-73.72
			c0-40.67,33.1-73.77,73.72-73.77c40.67,0,73.77,33.1,73.77,73.77C2667.51,2373.71,2634.41,2406.81,2593.74,2406.81z"/>
		<path class="st14" d="M3884.69,1773.49c10.1-10.61,3-28.04-11.64-28.71c-4.1-0.19-8.07-0.28-11.92-0.28
			c-64.08,0-95.11,25.34-121.03,46.5c-27.7,22.6-47.7,38.93-104.22,27.61c-55.36-11.08-94.73-4.43-117.03,19.66
			c-27.75,30.07-15.8,73.57-15.13,75.79l84.75,276.18h-0.14c-31.95,0-82.73,5.06-113.85,33.63c-19.13,17.49-28.28,40.71-27.32,69.05
			c1.06,31.22,19.03,56.71,50.54,71.65c21.06,9.97,47.36,14.74,74.68,14.74c44.91,0,92.46-12.86,123.49-36.52
			c28.28-21.54,40.91-50.25,35.56-80.9l-0.15-0.96l-82.15-293.62c45.77-2.65,138.09-16.96,168.3-87.93
			C3839.5,1827.52,3865.48,1793.66,3884.69,1773.49z M3781.97,1864.23c-29.49,69.24-156.11,65.05-157.36,64.95l-26.5-1.11
			l95.5,341.32c2.46,15.85-4.63,30.21-21.06,42.74c-38.59,29.34-115.54,37.87-158.33,17.59c-18.65-8.82-27.99-21.3-28.57-38.16
			c-0.58-16.72,4.29-29.58,14.84-39.27c20.72-19.08,60.08-23.56,88.03-23.56c9.93,0,18.45,0.58,24.14,1.25l29.44,3.57
			l-101.42-330.43c-0.53-2.12-5.97-25.34,6.6-38.79c12.29-13.11,41.05-15.9,81.04-7.9c74.35,14.84,107.21-11.95,136.16-35.56
			c18.41-15.08,36.23-29.58,66.44-35.37C3814.49,1802.7,3797.48,1827.8,3781.97,1864.23z"/>
		<path class="st16" d="M1000.3,2853.44v871.05c0,0-116.69-37.71-110.19-190.43c6.49-152.72,0-573.81,0-573.81
			S926.77,2891.15,1000.3,2853.44z"/>
		<path class="st15" d="M2836.97,3360.05c-50.98,68.47-132.55,112.89-224.29,112.89c-154.04,0-279.41-125.32-279.41-279.41
			c0-91.74,44.42-173.26,112.94-224.24c-34.64,46.5-55.17,104.12-55.17,166.47c0,154.09,125.37,279.41,279.41,279.41
			C2732.8,3415.17,2790.42,3394.64,2836.97,3360.05z"/>
		<path class="st17" d="M3275.57,1961.8v1744.49c0,21.25-17.3,38.55-38.55,38.55h-119.44c96.46,0,96.8-69.33,96.8-70.3
			c0,0,0-1561.44,0-1660.75c0-77.14-69.09-89.04-99.88-90.53h122.53C3258.27,1923.25,3275.57,1940.55,3275.57,1961.8z"/>
		<path class="st17" d="M4117.41,2871.62v834.66c0,0.92,0,1.78-0.1,2.65c-1.35,20.04-18.12,35.9-38.45,35.9h-33.58
			c44.18,0,35.36-74.39,35.36-74.39v-762.97c0-72.9-35.36-74.39-35.36-74.39h33.58c20.38,0,37.1,15.9,38.45,35.9
			C4117.41,2869.84,4117.41,2870.76,4117.41,2871.62z"/>
		<path class="st17" d="M1712.99,2871.62v834.66c0,0.92,0,1.78-0.1,2.65c-1.35,20.04-18.12,35.9-38.45,35.9h-33.58
			c44.18,0,35.36-74.39,35.36-74.39v-762.97c0-72.9-35.36-74.39-35.36-74.39h33.58c20.38,0,37.1,15.9,38.45,35.9
			C1712.99,2869.84,1712.99,2870.76,1712.99,2871.62z"/>
		<path class="st18" d="M2866.69,2330.54c0,138.67-112.79,251.51-251.51,251.51c-3.57,0-7.13-0.1-10.7-0.24
			c133.75-5.64,240.77-116.22,240.77-251.27c0-135.05-107.01-245.58-240.77-251.22c3.56-0.14,7.13-0.24,10.7-0.24
			C2753.9,2079.07,2866.69,2191.87,2866.69,2330.54z"/>
		<path class="st19" d="M3195.06,2596.12c0,63.7-51.89,115.54-115.54,115.54c-2.36,0-4.72-0.05-7.04-0.24
			c60.42-3.61,108.51-53.96,108.51-115.3c0-61.34-48.09-111.69-108.51-115.3c2.31-0.19,4.67-0.24,7.04-0.24
			C3143.16,2480.58,3195.06,2532.42,3195.06,2596.12z"/>
		<path class="st18" d="M3086.31,3185.29c0,250.74-204,454.79-454.79,454.79c-3.13,0-6.26-0.05-9.4-0.1
			c246.45-5.06,445.35-207.14,445.35-454.7c0-247.27-198.37-449.16-444.34-454.7c2.79-0.1,5.59-0.15,8.38-0.15
			C2882.31,2730.45,3086.31,2934.5,3086.31,3185.29z"/>
		<path class="st20" d="M1344.66,2834.04c0,0-2.31-0.53-6.36-0.92h6.17C1344.62,2833.75,1344.66,2834.04,1344.66,2834.04z"/>
		<path class="st15" d="M3620.5,3217.04c0,192.1,0,381.46,0,381.46s1.06,92.8,48.57,146.33h-207.18c-9.3,0-18.26-3.42-25.44-9.78
			l-0.77-0.63c-7.85-7.32-12.34-17.54-12.34-28.14v-245.73c0,0-4.91-46.54-21.92-70.68c0,0-15.18,18.79-16.62,63.12v238.41
			l-23.08-19.51c-30.31-25.59-47.7-63.02-47.7-102.73V3008.8c0-39.7,17.39-77.19,47.75-102.77l23.03-19.47v223.28
			c0,0,4.43,176.64,13.2,215.57c0,0,7.21-151.81,9.62-230.64l-5.32-223.1c0-10.41,25.14-20.14,32.66-27.46l4.63-3.9
			c6.5-4.72,14.21-7.18,22.31-7.18h264.76c-37,3.32-106.15,32.19-106.15,201.31V3217.04z"/>
		<path class="st16" d="M3407.62,2853.44v871.05c0,0-116.69-37.71-110.19-190.43c6.49-152.72,0-573.81,0-573.81
			S3334.09,2891.15,3407.62,2853.44z"/>
		<path class="st14" d="M4078.87,2794.53h-616.88c-20.86,0-39.75,8.34-53.68,21.83l-94.2,79.55V1961.8
			c0-42.5-34.6-77.09-77.09-77.09H1918.8c-21.54,0-41.05,8.91-55.02,23.22l-181.79,178.37c-34.45,32.57-54.25,78.44-54.25,125.85
			v582.43h-570.48c-16.62,0-32.43,5.2-45.77,15.13l-6.5,5.44l-72.76,61.43c-38.98,32.96-61.38,81.14-61.38,132.21v560.36
			c0,51.07,22.36,99.26,61.34,132.16l73.62,62.2l0.67,0.58l0.05,0.05c14.02,12.38,32.09,19.22,50.74,19.22h616.88
			c19.47,0,37.29-7.28,50.88-19.27c16.04-14.07,26.21-34.79,26.21-57.82v-56.57l105.33,101.81c3.37,4.58,7.23,8.82,11.52,12.58
			c13.54,12,31.27,19.27,50.74,19.27h1318.22c19.47,0,37.29-7.28,50.88-19.27c16.04-14.07,26.21-34.79,26.21-57.82v-24.24
			l97.04,82.05l0.05,0.05c13.59,11.9,31.32,19.22,50.78,19.22h616.88c19.47,0,37.29-7.28,50.88-19.27
			c16.04-14.07,26.21-34.79,26.21-57.82v-834.66C4155.96,2829.13,4121.36,2794.53,4078.87,2794.53z M1712.68,3706.29
			c0,21.25-17.3,38.55-38.55,38.55h-616.88c-9.3,0-18.26-3.42-25.44-9.78l-0.77-0.63c-7.85-7.32-12.34-17.54-12.34-28.14v-245.73
			c0,0-4.91-46.54-21.92-70.68c0,0-15.18,18.79-16.62,63.12v238.41l-23.08-19.51c-30.31-25.59-47.7-63.02-47.7-102.73V3008.8
			c0-39.7,17.39-77.19,47.75-102.77l23.03-19.47v223.28c0,0,4.43,176.64,13.2,215.57c0,0,22.93-103.88,25.34-182.71v-271.03
			c0-10.41,4.1-20.14,11.61-27.46l4.63-3.9c6.5-4.72,14.21-7.18,22.31-7.18h616.88c21.25,0,38.55,17.25,38.55,38.55V3706.29z
			 M1841.71,3683.59l-90.49-87.5v-724.42c0-42.55-34.59-77.09-77.09-77.09h-7.85v-582.43c0-36.86,15.37-72.51,42.45-98.05
			l132.98-130.53V3683.59z M3275.57,3706.29c0,21.25-17.3,38.55-38.55,38.55H1918.8c-21.25,0-38.55-17.3-38.55-38.55V1961.8
			c0-10.21,4.05-19.51,10.55-26.4l0.34-0.34v-0.05c6.99-7.23,16.82-11.76,27.66-11.76h1318.22c21.25,0,38.55,17.3,38.55,38.55
			V3706.29z M4117.41,3706.29c0,21.29-17.26,38.55-38.55,38.55h-616.88c-9.83,0-18.79-3.76-25.63-9.83l0.05-0.05l-1.01-0.87
			c-7.37-7.03-11.95-16.86-11.95-27.8v-532.75c-0.92-26.36-4.14-59.51-14.07-75.94c0,0-24.04,24.52-24.48,87.64v506.15l-23.03-19.47
			c-30.29-25.61-47.75-63.25-47.75-102.91v-560.08c0-39.72,17.52-77.41,47.88-103.01l22.9-19.32v49.34c0,0.72,0.05,62.35,16,90
			c0,0,22.55-39.12,22.55-88.13v-66.2c0-10.31,4.1-19.71,10.7-26.6l6.36-5.4c6.12-4.14,13.54-6.55,21.49-6.55h616.88
			c21.29,0,38.55,17.26,38.55,38.55V3706.29z"/>
		
			<linearGradient id="SVGID_00000084509999096286000040000004317031697667496604_" gradientUnits="userSpaceOnUse" x1="3584.4419" y1="3287.3176" x2="3956.3616" y2="3287.3176">
			<stop  offset="0" style="stop-color:#97A2AD"/>
			<stop  offset="0.5838" style="stop-color:#5B6877"/>
			<stop  offset="1" style="stop-color:#344354"/>
		</linearGradient>
		<path style="fill:url(#SVGID_00000084509999096286000040000004317031697667496604_);" d="M3770.43,3101.36
			c-41.63,0-80.08,13.68-111.06,36.81c-45.48,33.87-74.92,88.08-74.92,149.12c0,34.59,9.44,66.97,25.92,94.73
			c8,13.49,17.68,25.92,28.76,37c33.63,33.53,80.03,54.25,131.3,54.25c59.41,0,112.36-27.9,146.38-71.31
			c24.77-31.61,39.56-71.41,39.56-114.67C3956.36,3184.62,3873.1,3101.36,3770.43,3101.36z M3770.43,3356.68
			c-38.26,0-69.38-31.13-69.38-69.33c0-38.26,31.13-69.38,69.38-69.38c38.21,0,69.33,31.13,69.33,69.38
			C3839.76,3325.55,3808.63,3356.68,3770.43,3356.68z"/>
		<path class="st14" d="M3770.43,3179.41c-59.51,0-107.93,48.42-107.93,107.93c0,59.46,48.42,107.88,107.93,107.88
			c59.46,0,107.88-48.42,107.88-107.88C3878.31,3227.84,3829.88,3179.41,3770.43,3179.41z M3770.43,3356.68
			c-38.26,0-69.38-31.13-69.38-69.33c0-38.26,31.13-69.38,69.38-69.38c38.21,0,69.33,31.13,69.33,69.38
			C3839.76,3325.55,3808.63,3356.68,3770.43,3356.68z"/>
		
			<linearGradient id="SVGID_00000069390866592125071370000003176800104886994878_" gradientUnits="userSpaceOnUse" x1="3701.0435" y1="3287.3179" x2="3839.76" y2="3287.3179">
			<stop  offset="0" style="stop-color:#FFFE9C"/>
			<stop  offset="1" style="stop-color:#FF295F"/>
		</linearGradient>
		<path style="fill:url(#SVGID_00000069390866592125071370000003176800104886994878_);" d="M3839.76,3287.34
			c0,15.47-5.11,29.78-13.68,41.29c-0.48,0.53-0.96,1.16-1.4,1.78c-0.24,0.34-0.48,0.68-0.77,1.01c-3.28,3.95-7.04,7.57-11.13,10.75
			c-11.71,9.06-26.4,14.5-42.35,14.5c-38.26,0-69.38-31.13-69.38-69.33c0-28.52,17.35-53.1,42.02-63.75
			c8.38-3.61,17.63-5.64,27.37-5.64C3808.63,3217.96,3839.76,3249.09,3839.76,3287.34z"/>
		<path class="st23" d="M3956.36,3287.29c0,43.27-14.79,83.07-39.56,114.67c-60.9,48.23-105.42,70.92-67.46,47.27
			c106.82-66.64,101.08-219.77-6.93-294.13c-57.5-39.59-130.87-26.86-183.06-16.93c30.98-23.13,69.43-36.81,111.06-36.81
			C3873.1,3101.36,3956.36,3184.62,3956.36,3287.29z"/>
		<path class="st14" d="M3770.43,3083.29c-112.55,0-204.1,91.5-204.1,204c0,20.77,3.18,40.81,9.01,59.75
			c5.4,15.08,15.08,33.29,32.67,48.18c0,0,7.18-12.14-1.73-86.87c-0.19-1.16-0.29-2.26-0.39-3.42c-0.63-5.78-1.01-11.66-1.01-17.63
			c0-84.08,63.12-153.75,144.5-164.11c1.16-0.14,2.26-0.29,3.42-0.39c5.78-0.63,11.66-0.96,17.63-0.96
			c91.26,0,165.51,74.25,165.51,165.46c0,91.26-74.25,165.51-165.51,165.51c-22.12,0-43.17-4.34-62.44-12.24h-0.05c0,0,0,0-0.05,0
			c-0.29-0.1-0.58-0.19-0.82-0.39c-0.87-0.34-1.74-0.72-2.6-1.11c-0.77-0.34-1.59-0.67-2.55-1.06
			c-11.56-4.82-37.97-15.51-63.6-22.79c0,0,4.29,41,78.01,68.8c17.25,4.77,35.37,7.32,54.11,7.32
			c112.51,0,204.05-91.55,204.05-204.05C3974.48,3174.79,3882.93,3083.29,3770.43,3083.29z"/>
		<path class="st18" d="M3812.78,3342.17c-11.71,9.06-26.4,14.5-42.35,14.5c-38.26,0-69.38-31.13-69.38-69.33
			c0-28.52,17.35-53.1,42.02-63.75c0,0-34.19,28.29-18.02,77.14C3740.68,3347.99,3784.16,3361.78,3812.78,3342.17z"/>
		
			<linearGradient id="SVGID_00000039100152939901306010000007171637474501300135_" gradientUnits="userSpaceOnUse" x1="1179.7349" y1="3287.3176" x2="1551.6542" y2="3287.3176">
			<stop  offset="0" style="stop-color:#97A2AD"/>
			<stop  offset="0.5838" style="stop-color:#5B6877"/>
			<stop  offset="1" style="stop-color:#344354"/>
		</linearGradient>
		<path style="fill:url(#SVGID_00000039100152939901306010000007171637474501300135_);" d="M1495.81,3154.45
			c-9.64-9.44-20.28-17.83-31.8-25.01c-8.05-5.06-16.53-9.49-25.39-13.2c-11.56-4.96-23.71-8.77-36.33-11.28
			c-11.8-2.41-24.04-3.61-36.57-3.61c-41.63,0-80.08,13.68-111.06,36.81c-45.48,33.87-74.92,88.08-74.92,149.12
			c0,34.59,9.44,66.97,25.92,94.73c8,13.49,17.68,25.92,28.76,37c10.99,10.99,23.37,20.57,36.81,28.48
			c12.86,7.61,26.74,13.73,41.39,18.07c6.79,2.02,13.78,3.66,20.91,4.91c10.46,1.83,21.2,2.79,32.19,2.79
			c5.16,0,10.26-0.19,15.27-0.63c53.14-4.34,100.03-31.03,131.1-70.68c24.77-31.61,39.56-71.41,39.56-114.67
			C1551.65,3235.26,1530.26,3188.18,1495.81,3154.45z M1377.43,3355.66c-3.81,0.68-7.71,1.01-11.71,1.01
			c-4.58,0-9.01-0.43-13.35-1.3c-14.79-2.89-27.95-10.5-37.77-21.2c-11.37-12.38-18.26-28.76-18.26-46.83
			c0-35.94,27.51-65.62,62.59-69.05c2.22-0.24,4.48-0.34,6.79-0.34c12,0,23.27,3.08,33.15,8.53c8.19,4.43,15.42,10.55,21.2,17.83
			c9.35,11.85,14.98,26.79,14.98,43.03C1435.05,3321.55,1410.09,3350.12,1377.43,3355.66z"/>
		<path class="st14" d="M1365.72,3179.41c-59.51,0-107.93,48.42-107.93,107.93c0,59.46,48.42,107.88,107.93,107.88
			c59.46,0,107.88-48.42,107.88-107.88C1473.6,3227.84,1425.18,3179.41,1365.72,3179.41z M1365.72,3356.68
			c-38.26,0-69.38-31.13-69.38-69.33c0-38.26,31.13-69.38,69.38-69.38c38.21,0,69.33,31.13,69.33,69.38
			C1435.05,3325.55,1403.93,3356.68,1365.72,3356.68z"/>
		
			<linearGradient id="SVGID_00000057835400162013970200000002420369720466776480_" gradientUnits="userSpaceOnUse" x1="1296.3364" y1="3287.3179" x2="1435.053" y2="3287.3179">
			<stop  offset="0" style="stop-color:#FFFE9C"/>
			<stop  offset="1" style="stop-color:#FF295F"/>
		</linearGradient>
		<path style="fill:url(#SVGID_00000057835400162013970200000002420369720466776480_);" d="M1435.05,3287.34
			c0,15.47-5.11,29.78-13.68,41.29c-0.48,0.53-0.96,1.16-1.4,1.78c-0.24,0.34-0.48,0.68-0.77,1.01c-3.28,3.95-7.04,7.57-11.13,10.75
			c-11.71,9.06-26.4,14.5-42.35,14.5c-38.26,0-69.38-31.13-69.38-69.33c0-28.52,17.34-53.1,42.01-63.75
			c8.38-3.61,17.63-5.64,27.37-5.64C1403.93,3217.96,1435.05,3249.09,1435.05,3287.34z"/>
		<path class="st23" d="M1551.65,3287.29c0,43.27-14.79,83.07-39.56,114.67c-60.9,48.23-105.42,70.92-67.46,47.27
			c106.82-66.64,101.08-219.77-6.93-294.13c-57.5-39.59-130.87-26.86-183.06-16.93c30.98-23.13,69.43-36.81,111.06-36.81
			C1468.4,3101.36,1551.65,3184.62,1551.65,3287.29z"/>
		<path class="st18" d="M1408.07,3342.17c-11.71,9.06-26.4,14.5-42.35,14.5c-38.26,0-69.38-31.13-69.38-69.33
			c0-28.52,17.34-53.1,42.01-63.75c0,0-34.19,28.29-18.02,77.14C1335.97,3347.99,1379.45,3361.78,1408.07,3342.17z"/>
		<g>
			<path class="st14" d="M1902.64,3360.48c36.86-37.44,75.74-102.73,61.19-205.5l-2.84-20.09l-20.24,1.54
				c-1.4,0.1-28.48,2.36-59.79,21.39c-3.9-41.63-23.85-71.65-25.06-73.43l-8.96-13.2l-15.27,4.67
				c-23.47,7.18-43.03,16.29-59.31,26.69c-12.86-50.59-53.96-72.18-78.49-76.66l-11.52-2.07l-8.09,8.53
				c-23.71,25.01-34.11,51.31-37.15,75.02c-38.74-25.78-73-28.81-74.68-28.96l-20.38-1.59l-2.79,20.28
				c-15.9,116.7,22.31,193.16,57.24,236.72c8.09,10.17,16.43,18.98,24.48,26.65h-67.07v245.54c0,96.94,78.83,175.77,175.77,175.77
				h71.89c96.94,0,175.77-78.83,175.77-175.77v-245.54H1902.64z M1923.26,3184.95c6.26,117.56-72.13,165.84-90.58,175.53h-6.07
				C1832.73,3236.08,1891.12,3197.05,1923.26,3184.95z M1827.52,3123.19c7.28,16.72,15.9,45.92,6.41,76.99
				c-24.77,32.04-47.22,82.3-50.74,160.3h-33.82c-1.06-30.4-4.34-57.43-9.2-81.52h0.14
				C1739.11,3274.24,1713.47,3168.14,1827.52,3123.19z M1697.14,3072.3c13.92,6.46,35.99,23.18,35.8,64.28
				c-12.58,14.89-21.25,30.69-27.18,46.3c-6.41-11.32-13.15-21.34-20-30.11C1682.73,3146.41,1668.09,3110.99,1697.14,3072.3z
				 M1579.77,3126.56c32.62,11.03,94.05,46.4,117.32,157.46c0.53,2.94,1.01,4.82,1.16,5.59c4.05,20.91,6.79,44.42,7.76,70.88h-13.2
				C1670.79,3348.73,1568.3,3285.08,1579.77,3126.56z M1933.96,3606.02c0,73.04-59.36,132.41-132.41,132.41h-71.89
				c-73.04,0-132.41-59.36-132.41-132.41v-202.17h336.7V3606.02z"/>
			
				<linearGradient id="SVGID_00000121270816065154458800000014263335585803170463_" gradientUnits="userSpaceOnUse" x1="1879.4728" y1="3395.7048" x2="1866.9036" y2="3053.8193">
				<stop  offset="0.1434" style="stop-color:#059F5E"/>
				<stop  offset="0.8333" style="stop-color:#CAE346"/>
			</linearGradient>
			<path style="fill:url(#SVGID_00000121270816065154458800000014263335585803170463_);" d="M1832.68,3360.48h-6.07
				c6.12-124.41,64.52-163.43,96.65-175.53C1929.52,3302.52,1851.13,3350.8,1832.68,3360.48z"/>
			
				<linearGradient id="SVGID_00000181062331459901148940000010705163187137463211_" gradientUnits="userSpaceOnUse" x1="1716.1941" y1="3401.7083" x2="1703.6249" y2="3059.823">
				<stop  offset="0.1434" style="stop-color:#059F5E"/>
				<stop  offset="0.8333" style="stop-color:#CAE346"/>
			</linearGradient>
			<path style="fill:url(#SVGID_00000181062331459901148940000010705163187137463211_);" d="M1732.94,3136.58
				c-11.03,13.11-19.08,26.89-24.91,40.62c-0.77,1.93-1.54,3.81-2.26,5.69c-6.41-11.32-13.15-21.34-20-30.11
				c-3.04-6.36-17.68-41.77,11.37-80.46C1711.07,3078.76,1733.13,3095.48,1732.94,3136.58z"/>
			
				<linearGradient id="SVGID_00000029759770019763566810000010858097645851125655_" gradientUnits="userSpaceOnUse" x1="1794.4962" y1="3398.8291" x2="1781.927" y2="3056.9429">
				<stop  offset="0.1434" style="stop-color:#059F5E"/>
				<stop  offset="0.8333" style="stop-color:#CAE346"/>
			</linearGradient>
			<path style="fill:url(#SVGID_00000029759770019763566810000010858097645851125655_);" d="M1833.93,3200.18
				c-24.77,32.04-47.22,82.3-50.74,160.3h-33.82c-1.06-30.4-4.34-57.43-9.2-81.52h0.14c-1.2-4.72-26.84-110.82,87.21-155.77
				C1834.8,3139.9,1843.42,3169.1,1833.93,3200.18z"/>
			
				<linearGradient id="SVGID_00000075148575606223053790000015224132508191272892_" gradientUnits="userSpaceOnUse" x1="1647.7974" y1="3404.2224" x2="1635.2281" y2="3062.3364">
				<stop  offset="0.1434" style="stop-color:#059F5E"/>
				<stop  offset="0.8333" style="stop-color:#CAE346"/>
			</linearGradient>
			<path style="fill:url(#SVGID_00000075148575606223053790000015224132508191272892_);" d="M1706.01,3360.48h-13.2
				c-22.02-11.76-124.5-75.41-113.04-233.93c8,2.75,17.78,6.94,28.33,13.35c32.23,19.71,71.45,60.42,88.99,144.11
				c0.53,2.94,1.01,4.82,1.16,5.59C1702.3,3310.52,1705.04,3334.03,1706.01,3360.48z"/>
			
				<linearGradient id="SVGID_00000131331163500893692530000013496510118991584661_" gradientUnits="userSpaceOnUse" x1="1597.2588" y1="3571.136" x2="1933.9573" y2="3571.136">
				<stop  offset="0.1434" style="stop-color:#FFA658"/>
				<stop  offset="0.8333" style="stop-color:#FFD96A"/>
			</linearGradient>
			<path style="fill:url(#SVGID_00000131331163500893692530000013496510118991584661_);" d="M1933.96,3403.85v202.17
				c0,73.04-59.36,132.41-132.41,132.41h-71.89c-73.04,0-132.41-59.36-132.41-132.41v-202.17H1933.96z"/>
			<path class="st31" d="M1747.88,3738.42h-18.21c-73.04,0-132.41-59.36-132.41-132.41v-202.17h103.45
				c-18.98,4.62-47.07,23.51-47.07,94.29C1653.63,3604.96,1647.37,3733.61,1747.88,3738.42z"/>
			<path class="st32" d="M1692.8,3360.48c-22.02-11.76-124.5-75.41-113.04-233.93c8,2.75,17.78,6.94,28.33,13.35
				C1608.1,3139.9,1599.04,3275.63,1692.8,3360.48z"/>
			<path class="st32" d="M1708.03,3177.2c-0.77,1.93-1.54,3.81-2.26,5.69c-6.41-11.32-13.15-21.34-20-30.11
				c-3.04-6.36-17.68-41.77,11.37-80.46C1697.14,3072.3,1689.58,3140.53,1708.03,3177.2z"/>
			<path class="st32" d="M1765.37,3360.48h-16c-1.06-30.4-4.34-57.43-9.2-81.52h0.14c-1.2-4.72-26.84-110.82,87.21-155.77
				C1827.52,3123.19,1742.71,3171,1765.37,3360.48z"/>
		</g>
		<g>
			<path class="st14" d="M3466.53,3413.87c32.09-37.53,66.11-103.54,53.43-209.4l-2.51-20.86l-20.96,1.88
				c-2.46,0.19-28.67,3.03-57.67,25.15c-6.79-34.64-22.93-61.29-23.99-63.02l-10.31-16.77l-17.73,8.67
				c-16.43,8.09-30.26,18.02-41.92,29.05c-16.14-26.02-42.88-39.17-59.17-42.98l-12.09-2.84l-8.58,9.01
				c-20.09,21.25-29.2,42.59-32.43,61.53c-32.33-20.14-60.18-22.6-61.63-22.69l-20.38-1.59l-2.79,20.29
				c-13.88,101.71,19.51,168.4,50.01,206.41c5.35,6.7,10.79,12.67,16.14,18.16h-53.58v193.5c0,96.94,78.87,175.82,175.82,175.82
				h19.56c96.94,0,175.82-78.87,175.82-175.82v-193.5H3466.53z M3479.01,3236.08c4.72,117.37-59.55,166.71-76.75,177.79h-0.72
				C3406.35,3292.64,3451.4,3250.53,3479.01,3236.08z M3387.32,3189.68c7.52,18.16,15.61,46.26,8.14,71.31
				c-19.47,33.73-34.69,82.44-37.29,152.88h-23.32c-0.96-23.99-3.52-45.58-7.28-64.95h0.05
				C3327.48,3347.76,3317.26,3240.8,3387.32,3189.68z M3287.54,3172.52c9.88,5.3,23.03,15.85,26.55,35.08
				c-9.3,16-15.85,32.72-20.43,48.91c-4.53-7.52-9.25-14.31-14.02-20.43C3276.65,3229.81,3266.14,3203.02,3287.54,3172.52z
				 M3188.42,3219.26c33.87,12.82,97.09,55.41,103.06,194.61h-7.52C3264.41,3403.22,3180.71,3349.79,3188.42,3219.26z
				 M3488.21,3607.37c0,73.04-59.41,132.45-132.45,132.45h-19.56c-73.04,0-132.45-59.41-132.45-132.45v-150.14h284.47V3607.37z"/>
			
				<linearGradient id="SVGID_00000105395454598846694520000014261134568006353824_" gradientUnits="userSpaceOnUse" x1="3422.3115" y1="3573.2188" x2="3458.1343" y2="3099.9846">
				<stop  offset="0.1434" style="stop-color:#059F5E"/>
				<stop  offset="0.8333" style="stop-color:#CAE346"/>
			</linearGradient>
			<path style="fill:url(#SVGID_00000105395454598846694520000014261134568006353824_);" d="M3402.26,3413.87h-0.72
				c4.82-121.23,49.87-163.34,77.48-177.79C3483.73,3353.45,3419.46,3402.79,3402.26,3413.87z"/>
			
				<linearGradient id="SVGID_00000070107839435110138900000017074397260916296106_" gradientUnits="userSpaceOnUse" x1="3341.2451" y1="3567.0823" x2="3377.0679" y2="3093.8479">
				<stop  offset="0.1434" style="stop-color:#059F5E"/>
				<stop  offset="0.8333" style="stop-color:#CAE346"/>
			</linearGradient>
			<path style="fill:url(#SVGID_00000070107839435110138900000017074397260916296106_);" d="M3395.46,3260.99
				c-19.47,33.73-34.69,82.44-37.29,152.88h-23.32c-0.96-23.99-3.52-45.58-7.28-64.95h0.05c-0.14-1.16-10.36-108.07,59.65-159.19
				c0.05-0.05,0.05-0.05,0.05-0.05C3394.84,3207.84,3402.93,3235.93,3395.46,3260.99z"/>
			
				<linearGradient id="SVGID_00000000196378167969031380000009214603070291274120_" gradientUnits="userSpaceOnUse" x1="3267.5251" y1="3561.5017" x2="3303.3479" y2="3088.2676">
				<stop  offset="0.1434" style="stop-color:#059F5E"/>
				<stop  offset="0.8333" style="stop-color:#CAE346"/>
			</linearGradient>
			<path style="fill:url(#SVGID_00000000196378167969031380000009214603070291274120_);" d="M3314.08,3207.6
				c-9.3,16-15.85,32.72-20.43,48.91c-4.53-7.52-9.25-14.31-14.02-20.43c-2.99-6.26-13.49-33.05,7.9-63.55
				C3297.41,3177.82,3310.57,3188.37,3314.08,3207.6z"/>
			
				<linearGradient id="SVGID_00000084516506762406454060000007614510133437748669_" gradientUnits="userSpaceOnUse" x1="3221.6763" y1="3558.031" x2="3257.499" y2="3084.7971">
				<stop  offset="0.1434" style="stop-color:#059F5E"/>
				<stop  offset="0.8333" style="stop-color:#CAE346"/>
			</linearGradient>
			<path style="fill:url(#SVGID_00000084516506762406454060000007614510133437748669_);" d="M3291.49,3413.87h-7.52
				c-19.56-10.65-103.25-64.08-95.55-194.61c4.53,1.69,9.54,3.95,14.89,6.89C3238.15,3245.13,3286.33,3293.22,3291.49,3413.87z"/>
			
				<linearGradient id="SVGID_00000103236414828895075620000005440149495036185225_" gradientUnits="userSpaceOnUse" x1="3203.7456" y1="3598.5271" x2="3488.2141" y2="3598.5271">
				<stop  offset="0.1434" style="stop-color:#FFA658"/>
				<stop  offset="0.8333" style="stop-color:#FFD96A"/>
			</linearGradient>
			<path style="fill:url(#SVGID_00000103236414828895075620000005440149495036185225_);" d="M3488.21,3457.23v150.14
				c0,73.04-59.41,132.45-132.45,132.45h-19.56c-73.04,0-132.45-59.41-132.45-132.45v-150.14H3488.21z"/>
			<path class="st32" d="M3283.97,3413.87c-19.56-10.65-103.25-64.08-95.55-194.61c4.53,1.69,9.54,3.95,14.89,6.89
				C3203.07,3259.11,3209.29,3354.6,3283.97,3413.87z"/>
			<path class="st32" d="M3293.65,3256.51c-4.53-7.52-9.25-14.31-14.02-20.43c-2.99-6.26-13.49-33.05,7.9-63.55
				C3287.54,3172.52,3275.1,3223.11,3293.65,3256.51z"/>
			<path class="st32" d="M3334.85,3413.87c-0.96-23.99-3.52-45.58-7.28-64.95h0.05c-0.14-1.16-10.36-108.07,59.65-159.19
				C3385.63,3191.94,3330.18,3267.15,3334.85,3413.87z"/>
			<path class="st31" d="M3355.76,3739.82h-19.56c-73.04,0-132.45-59.41-132.45-132.45v-150.14h104.8
				c-22.65,2.41-58.35,15.27-60.9,71.65C3243.88,3611.8,3226.3,3724.55,3355.76,3739.82z"/>
		</g>
		<path class="st14" d="M1365.72,3083.29c-112.55,0-204.1,91.5-204.1,204c0,20.77,3.18,40.81,9.01,59.75
			c5.4,15.08,15.08,33.29,32.67,48.18c0,0,7.18-12.14-1.73-86.87c-0.19-1.16-0.29-2.26-0.39-3.42c-0.63-5.78-1.01-11.66-1.01-17.63
			c0-84.08,63.12-153.75,144.5-164.11c1.16-0.14,2.26-0.29,3.42-0.39c5.78-0.63,11.66-0.96,17.63-0.96
			c91.26,0,165.51,74.25,165.51,165.46c0,91.26-74.25,165.51-165.51,165.51c-22.12,0-43.17-4.34-62.44-12.24h-0.05c0,0,0,0-0.05,0
			c-0.29-0.1-0.58-0.19-0.82-0.39c-0.87-0.34-1.73-0.72-2.6-1.11c-0.77-0.34-1.59-0.67-2.55-1.06
			c-11.56-4.82-37.97-15.51-63.6-22.79c0,0,4.29,41,78.01,68.8c17.25,4.77,35.37,7.32,54.11,7.32
			c112.51,0,204.05-91.55,204.05-204.05C1569.77,3174.79,1478.22,3083.29,1365.72,3083.29z"/>
		<g>
			<g>
				<path class="st14" d="M2065.46,2722.07c-10.73,0-19.43-8.7-19.43-19.43v-169.53c0-10.73,8.7-19.43,19.43-19.43
					c10.73,0,19.43,8.7,19.43,19.43v169.53C2084.89,2713.37,2076.19,2722.07,2065.46,2722.07z"/>
			</g>
			<g>
				<path class="st14" d="M2131.96,2760.09c-10.73,0-19.43-8.7-19.43-19.43v-289.07c0-10.73,8.7-19.43,19.43-19.43
					c10.73,0,19.43,8.7,19.43,19.43v289.07C2151.39,2751.39,2142.69,2760.09,2131.96,2760.09z"/>
			</g>
			<g>
				<path class="st14" d="M2198.47,2664.6c-10.73,0-19.43-8.7-19.43-19.43v-96.86c0-10.73,8.7-19.43,19.43-19.43
					c10.73,0,19.43,8.7,19.43,19.43v96.86C2217.9,2655.9,2209.2,2664.6,2198.47,2664.6z"/>
			</g>
			<g>
				<path class="st14" d="M2001.08,2739.17c-10.73,0-19.43-8.7-19.43-19.43v-220.85c0-10.73,8.7-19.43,19.43-19.43
					c10.73,0,19.43,8.7,19.43,19.43v220.85C2020.51,2730.47,2011.81,2739.17,2001.08,2739.17z"/>
			</g>
		</g>
		<path class="st23" d="M3051.33,3183.99c0,229.78-178.56,418.66-404.25,435.04c138.81-32.72,333.37-125.71,341.37-382.95
			c10.36-333.81-251.03-448-251.03-448l-139.92-39.85c5.88-0.29,11.76-0.39,17.68-0.39
			C2855.71,2747.84,3051.33,2943.56,3051.33,3183.99z"/>
		<path class="st14" d="M2612.68,2730.45c-67.21,0-131.06,14.65-188.49,40.96c0,0-0.24,0.1-0.72,0.34
			c-4.72,2.31-31.46,16.19-64.76,48.23c0,0,24.24,4.77,89.47-17.06c0.1-0.05,0.14-0.05,0.24-0.1
			c50.4-21.78,105.95-33.82,164.25-33.82c229.54,0,416.25,186.75,416.25,416.3c0,229.49-186.71,416.25-416.25,416.25
			c-229.54,0-416.25-186.75-416.25-416.25c0-82.54,24.14-159.58,65.77-224.39c0,0,1.45-2.17,3.9-5.97
			c10.46-16.38,39.17-62.78,46.45-91.11c0,0-41.05,9.4-87.11,83.16c-0.77,1.25-1.54,2.51-2.31,3.81c-1.64,2.7-3.28,5.49-4.96,8.34
			c-1.49,2.65-2.99,5.35-4.48,8.05c-0.29,0.53-0.53,1.01-0.82,1.49c-35.08,64.42-54.98,138.24-54.98,216.63
			c0,250.74,204,454.79,454.79,454.79s454.79-204.05,454.79-454.79C3067.47,2934.5,2863.47,2730.45,2612.68,2730.45z"/>
		
			<linearGradient id="SVGID_00000123433124892878456690000007716597800739080334_" gradientUnits="userSpaceOnUse" x1="2774.6023" y1="2299.5769" x2="2706.7285" y2="1575.5862">
			<stop  offset="0" style="stop-color:#3A0CA3"/>
			<stop  offset="0.2153" style="stop-color:#2B4BBB"/>
			<stop  offset="0.4985" style="stop-color:#1997D8"/>
			<stop  offset="0.7331" style="stop-color:#0BCFED"/>
			<stop  offset="0.9066" style="stop-color:#03F2FA"/>
			<stop  offset="1" style="stop-color:#00FFFF"/>
		</linearGradient>
		<path style="fill:url(#SVGID_00000123433124892878456690000007716597800739080334_);" d="M2932.6,1876.71
			c-42.79,44.52-83.4,47.36-107.16,35.22c-21.2-10.89-31.46-33.29-26.84-58.45c7.42-40.33,69.57-39.75,70.2-39.75l0.01,0
			c12.92,0.29,22.45-11.98,18.98-24.43l-64.63-231.48c-3.3-11.83-15.92-18.4-27.51-14.31l-178.41,62.87
			c-10.52,3.71-16.38,14.93-13.41,25.69l82.12,296.83c2.99,18.74-4.24,34.88-21.49,48.04c-30.69,23.32-84.99,29.63-118.53,13.73
			c-18.5-8.82-28.24-22.93-28.86-42.11c-0.72-20.91,4.24-35.46,15.23-44.52c11.71-9.64,29.34-12.33,44.76-12.33
			c11.42,0,21.63,1.49,27.17,2.75l0,0c14.48,3.43,27.22-10.16,22.85-24.39l-74.55-242.93c-7.56-24.57,5.59-50.21,29.97-58.35
			l228.82-76.71c12.24-4.1,25.3-3.08,36.76,2.94c11.47,6.02,19.75,16.19,23.32,28.62l79.55,275.7
			C2958.96,1826.93,2951.93,1856.61,2932.6,1876.71z"/>
		<path class="st14" d="M2988.01,1788.63l-79.55-275.7c-6.55-22.65-21.63-41.1-42.45-52.04c-20.86-10.94-44.62-12.86-66.93-5.4
			l-228.82,76.71c-44.33,14.84-68.32,61.53-54.59,106.24l65.96,214.8c-22.26-0.63-51.65,2.84-73.67,20.91
			c-20.67,16.96-30.6,42.45-29.44,75.74c1.16,33.73,19.23,60.57,50.88,75.55c17.83,8.48,39.03,12.58,60.81,12.53
			c35.08,0,71.55-10.55,97.62-30.4c29.05-22.12,41.82-52.71,35.94-86.15l-0.14-0.96l-78.34-283.12l145.75-51.31l53.34,191.19
			c-29.3,4.67-74.59,19.9-83.69,69.29c-7.71,41.92,10.79,81.04,47.17,99.74c36.09,18.45,95.11,16.96,152.55-42.79
			C2989.22,1873.43,2999.77,1829.44,2988.01,1788.63z M2932.6,1876.71c-42.79,44.52-83.4,47.36-107.16,35.22
			c-21.2-10.89-31.46-33.29-26.84-58.45c7.42-40.33,69.57-39.75,70.2-39.75l0.01,0c12.92,0.29,22.45-11.98,18.98-24.43
			l-64.63-231.48c-3.3-11.83-15.92-18.4-27.51-14.31l-178.41,62.87c-10.52,3.71-16.38,14.93-13.41,25.69l82.12,296.83
			c2.99,18.74-4.24,34.88-21.49,48.04c-30.69,23.32-84.99,29.63-118.53,13.73c-18.5-8.82-28.24-22.93-28.86-42.11
			c-0.72-20.91,4.24-35.46,15.23-44.52c11.71-9.64,29.34-12.33,44.76-12.33c11.42,0,21.63,1.49,27.17,2.75l0,0
			c14.48,3.43,27.22-10.16,22.85-24.39l-74.55-242.93c-7.56-24.57,5.59-50.21,29.97-58.35l228.82-76.71
			c12.24-4.1,25.3-3.08,36.76,2.94c11.47,6.02,19.75,16.19,23.32,28.62l79.55,275.7C2958.96,1826.93,2951.93,1856.61,2932.6,1876.71
			z"/>
		
			<linearGradient id="SVGID_00000047767888403327883680000011327342710943768726_" gradientUnits="userSpaceOnUse" x1="1667.6586" y1="2272.991" x2="1486.661" y2="1775.2472">
			<stop  offset="0.1434" style="stop-color:#04C0C7"/>
			<stop  offset="0.8333" style="stop-color:#E0FF90"/>
		</linearGradient>
		<path style="fill:url(#SVGID_00000047767888403327883680000011327342710943768726_);" d="M1755.06,2130.83
			c-30.07,31.32-58.06,33.68-74.25,25.39c-13.83-7.08-20.53-21.78-17.49-38.4c4.77-25.92,47.22-25.68,47.46-25.63l0,0
			c12.93,0.29,22.46-11.99,18.99-24.44l-48.06-172.16c-3.3-11.83-15.92-18.4-27.5-14.32l-132.2,46.54
			c-10.53,3.71-16.39,14.93-13.41,25.69l61.11,220.84c0.87,5.3,2.12,18.41-14.21,30.84c-21.63,16.43-59.84,20.86-83.4,9.68
			c-12.19-5.78-18.31-14.65-18.74-27.13c-0.72-20.77,7.03-27.17,9.59-29.3c7.61-6.26,19.71-8.05,30.26-8.05
			c8.19,0,15.51,1.06,19.18,1.93l0.03,0.01c14.48,3.41,27.2-10.18,22.84-24.4l-50.81-165.63c-7.56-24.52,5.59-50.16,29.97-58.35
			l138.52-46.4c12.29-4.14,25.34-3.08,36.76,2.94c11.47,5.97,19.75,16.14,23.37,28.57l54.45,188.83
			C1772.98,2096.81,1768.21,2117.09,1755.06,2130.83z"/>
		<path class="st14" d="M1804.54,2067.23l-54.49-188.87c-6.51-22.6-21.59-41.1-42.45-52.04c-20.82-10.94-44.62-12.82-66.93-5.35
			l-138.52,46.45c-44.33,14.84-68.32,61.48-54.59,106.19l42.4,138.19c-16.29,0.39-35.9,4.1-51.41,16.82
			c-11.47,9.4-24.86,27.51-23.75,60.47c0.96,27.08,15.42,48.62,40.76,60.61c13.93,6.6,30.45,9.78,47.36,9.78
			c27.27,0,55.65-8.24,75.89-23.66c23.22-17.63,33.44-42.16,28.72-69l-57.43-208l99.5-35.08L1686.5,2056
			c-25.92,5.35-54.74,20.48-61.1,54.88c-6.12,33.44,8.72,64.71,37.82,79.65c28.52,14.6,74.92,13.59,119.64-33.05
			C1805.51,2133.91,1813.79,2099.31,1804.54,2067.23z M1755.06,2130.83c-30.07,31.32-58.06,33.68-74.25,25.39
			c-13.83-7.08-20.53-21.78-17.49-38.4c4.77-25.92,47.22-25.68,47.46-25.63l0,0c12.93,0.29,22.46-11.99,18.99-24.44l-48.06-172.16
			c-3.3-11.83-15.92-18.4-27.5-14.32l-132.2,46.54c-10.53,3.71-16.39,14.93-13.41,25.69l61.11,220.84
			c0.87,5.3,2.12,18.41-14.21,30.84c-21.63,16.43-59.84,20.86-83.4,9.68c-12.19-5.78-18.31-14.65-18.74-27.13
			c-0.72-20.77,7.03-27.17,9.59-29.3c7.61-6.26,19.71-8.05,30.26-8.05c8.19,0,15.51,1.06,19.18,1.93l0.03,0.01
			c14.48,3.41,27.2-10.18,22.84-24.4l-50.81-165.63c-7.56-24.52,5.59-50.16,29.97-58.35l138.52-46.4
			c12.29-4.14,25.34-3.08,36.76,2.94c11.47,5.97,19.75,16.14,23.37,28.57l54.45,188.83
			C1772.98,2096.81,1768.21,2117.09,1755.06,2130.83z"/>
		<g>
			<path class="st14" d="M4334.09,3764.11c0,10.6-8.62,19.27-19.27,19.27H787.24c-10.65,0-19.27-8.67-19.27-19.27
				c0-10.65,8.62-19.27,19.27-19.27h3527.57C4325.46,3744.83,4334.09,3753.46,4334.09,3764.11z"/>
		</g>
	</g>
</g>
</svg>
